<svg xmlns="http://www.w3.org/2000/svg" viewBox="-8 0 80 80" stroke="#000" stroke-width="2" stroke-linecap="round" stroke-linejoin="round" fill="none">
  <!-- Main body -->
  <rect x="4" y="2" width="56" height="68" rx="6" ry="6"/>

  <!-- Bottom section divider -->
  <line x1="4" y1="50" x2="60" y2="50"/>

  <!-- Screen bezel -->
  <rect x="14" y="8" width="36" height="36" rx="3" ry="3" stroke-width="2.5"/>

  <!-- Screen rows (readings) -->
  <rect x="18" y="12" width="28" height="5" rx="1"/>
  <rect x="18" y="19" width="28" height="5" rx="1"/>
  <rect x="18" y="26" width="28" height="5" rx="1"/>
  <rect x="18" y="33" width="28" height="5" rx="1"/>

  <!-- Left buttons -->
  <circle cx="10" cy="16" r="2.5"/>
  <circle cx="10" cy="26" r="2.5"/>
  <circle cx="10" cy="36" r="2.5"/>

  <!-- Right buttons -->
  <path d="M52 16l2 -2.5h-4z" fill="#000" stroke="none"/>
  <path d="M52 28l2 2.5h-4z" fill="#000" stroke="none"/>
  <path d="M54 38a2.5 2.5 0 1 1-4 0 2.5 2.5 0 0 1 4 0" stroke-width="1.5"/>
  <path d="M51 36.5l2.5 3" stroke-width="1.2"/>

  <!-- Bottom logo area -->
  <rect x="24" y="55" width="16" height="10" rx="2"/>

  <!-- Bottom connectors -->
  <line x1="20" y1="70" x2="20" y2="76"/>
  <line x1="28" y1="70" x2="28" y2="76"/>
  <line x1="36" y1="70" x2="36" y2="76"/>
  <line x1="44" y1="70" x2="44" y2="76"/>
</svg>
