<svg xmlns="http://www.w3.org/2000/svg" viewBox="0 0 80 80" stroke="#000" stroke-width="2" stroke-linecap="round" stroke-linejoin="round" fill="none">
  <!-- Right side panel (device depth) -->
  <path d="M52 5 L58 8 Q62 10 62 14 L62 68 Q62 72 58 74 L52 70 Z"/>

  <!-- Front face -->
  <path d="M12 9 Q8 9 8 13 L8 61 Q8 65 12 65 L48 69 Q52 69 52 65 L52 9 Q52 5 48 5 L12 9 Z"/>

  <!-- Section divider -->
  <line x1="8" y1="51" x2="52" y2="49"/>

  <!-- Screen bezel -->
  <path d="M16 14 L44 12 L44 42 L16 44 Z" stroke-width="2.5"/>

  <!-- Screen data rows -->
  <path d="M20 18 L40 16 L40 20 L20 22 Z"/>
  <path d="M20 24 L40 22 L40 26 L20 28 Z"/>
  <path d="M20 30 L40 28 L40 32 L20 34 Z"/>
  <path d="M20 36 L40 34 L40 38 L20 40 Z"/>

  <!-- Bottom logo area -->
  <path d="M24 55 L36 54 L36 62 L24 63 Z"/>

  <!-- Bottom connectors -->
  <line x1="18" y1="66" x2="18" y2="76"/>
  <line x1="28" y1="67" x2="28" y2="76"/>
  <line x1="38" y1="68" x2="38" y2="76"/>
  <line x1="46" y1="69" x2="46" y2="76"/>
</svg>
