<?xml version="1.0" encoding="UTF-8"?>
<svg id="Layer_1" xmlns="http://www.w3.org/2000/svg" version="1.1" viewBox="350 420 1200 1200">
  <!-- Generator: Adobe Illustrator 30.1.0, SVG Export Plug-In . SVG Version: 2.1.1 Build 136)  -->
  <defs>
    <style>
      .st0 {
        fill: #fff;
      }

      .st1 {
        fill: #fff;
      }
    </style>
  </defs>
  <g id="VHtRQS">
    <g>
      <path class="st1" d="M1103.78,635.37c-4.81,5.54-6.8,11.39-13.01,13.42-48.68,15.86-69.86,61.99-69.76,111.38.08,41.99-14.83,81.64-43.34,111.75-16.47,17.4-38.17,32.02-62.25,33.25-9.05.46-13.16-11.71-14.1-17.41-4.69-28.58,23.8-21.18,46.53-43.33,24.26-23.65,35.46-54.95,35.37-88.88-.13-48.16,17.75-92.94,53.83-124.39,13.08-11.4,28.87-20.69,45.52-22.4,4.31-.44,8.01-1.72,11.69-.67,3.67,1.04,4.77,5.85,8.49,9.54,4.1-8.73,10.01-14.73,19.66-14.74l213.36-.16c13.57,0,21.61,8.79,21.91,21.44.32,13.28-8.11,22.6-21.94,22.62l-70.61.11c-8.72.01-14.72,5.67-14.73,14.8l-.26,224.97c-.01,12.06-9.59,18.86-18.87,18.87-11.47.02-19.05-8.49-19.06-21.26l-.18-220.27c0-10.47-6.82-16.99-17.1-17.01l-70.58-.18c-8.58-.02-15.18-3.73-20.57-11.45Z"/>
      <path class="st1" d="M1339.74,764.08c31.88-4.53,9.34,34.11,56.04,77.34,31.9,29.52,79.52,28.12,109.8-3.13,45.96-47.43,43.46-130.6-4.46-172.61-29.82-26.13-71.53-27.15-101.91-1.89-45.47,37.81-27.91,76.81-53.32,79.8-7.27.86-21.44-1.71-21.21-12.37,1.11-52.57,43.74-114.42,99.88-125.23,42.3-8.15,83.35,2.04,112.06,38.38,3.73-13.03-.95-24.24,6.26-34.56,4.85-6.94,14.97-8.01,21.44-4.71,7.75,3.96,12.01,9.23,11.99,19.59l-.49,263.06c-.02,10.96-10.59,17.58-17.89,17.76-10.46.25-18.02-6.45-18.9-17.12l-1.93-23.36c-15.29,13.55-29.85,26.17-49.01,33.32-40.84,15.23-84.73,6.14-116.58-23.65-26.8-25.06-43.33-58.59-47.35-95.5-.96-8.83,9.47-14.26,15.57-15.12Z"/>
      <path class="st1" d="M751.35,1273.48c43.19-27.88,26.39-59.88,52.8-61.06,7.35-.33,21.67,2.99,21.06,13.94-1.37,24.35-15.97,46.24-34.17,62.75-54.12,49.1-134.74,48.96-192.96,2.37l-.65,131.21c-.06,12.87-7.79,20.73-19.29,20.65-11.36-.07-19.39-7.7-19.38-20.8l.29-218.12c.08-58.46,47.41-105.01,100-115.63l12.45-2.51c72.49-14.64,152.97,42.04,153.89,100.98.13,8.47-11.99,10.82-17.21,11.07-29.16,1.4-12.08-25.21-47.17-54.09-37.4-30.78-92.7-32.69-130.87-2.83-20.52,16.05-32.3,37.77-32.77,61.7-.49,25.04,10.29,46.83,30.47,63.86,34.39,29.02,85.51,31.06,123.53,6.51Z"/>
      <path class="st1" d="M1164.15,1227.04c13.68,38.82,52.11,60.51,91.68,60.89,32.95.32,62.69-13.06,82.03-39.72,27.94-38.51,14.97-90.7-25.29-115.3-24.75-15.13-52.71-18.47-81.23-12.88-32.07,6.28-59.76,32.73-69.61,65.54-2.24,7.46-11.66,9.33-17.48,9.43-5.87.09-17.94-1.11-18.56-10.2-1.14-16.93,8.13-34.41,18.12-48.06,16.94-23.15,40.62-38.87,67.52-47.54,61.73-19.88,129.65,1.77,164.39,55.9,27.4,42.7,20.05,106.3-22.45,140.44-8.31,6.67-14.11,14.27-24.39,19.75-43.03,22.91-95.24,24.69-138.98,2.32-32.59-16.66-56.27-44.34-64.5-79.51-1.21-5.16.73-9.67,3.4-13.3,2.36-3.21,7.54-3.88,11.73-4.44,13.48-1.81,19.34,4.49,23.64,16.68Z"/>
      <path class="st1" d="M970.4,1287.89c38.26.94,72.38-16.73,89.97-49.51,12.33-22.97,11.43-53.34-2.02-75.41-21.83-35.83-62.54-50.41-103.2-44.01-34.2,5.38-63.61,27.16-74.28,60.11-3.55,10.98-9.81,16.94-22.57,16.12-7.58-.48-18.36-4.34-16.89-14.47,6.92-47.64,53.26-86.14,98.04-94.6,30.99-5.86,43.52-6.9,75.01,1.79,34.79,9.6,65.97,32.98,82.33,65.96,24.15,48.72,9.25,104.63-32.93,138.25-51.72,41.24-126.7,42.15-179.18,1.51-22.92-17.75-39.15-42.11-43.37-70.4-1.46-9.79,10.96-12.48,17.45-13.05,13.49-1.2,17.97,5.99,21.93,17.11,13.1,36.82,49.46,59.61,89.7,60.6Z"/>
      <path class="st1" d="M785,615.15l-134.06,282.07c-2.16,4.55-6.32,7.57-9.48,7.78-3.92.25-8.68-3.36-11.11-8.28l-136.01-275.83c-4.21-8.54-3.19-17.45,1.14-24.62,3.43-5.69,9.15-8.63,14.8-8.82s13.07,2.5,16.49,9.43l113.31,229.68,111.02-232.44c7.01-7.43,15.76-8.49,23.17-4.29,8.31,4.72,11.05,12.62,10.73,25.32Z"/>
      <path class="st1" d="M1519.16,1287.17c12.34,3.15,17.34,7.83,18.08,17.36.53,6.87-3.41,19.99-13.65,19.01-33.82-3.24-65.09-20.41-86.22-46.73-13.37-16.65-24.83-36.41-24.88-58.61l-.57-239.57,38.23.22,1.78,236.67c.27,35.74,34.84,63.4,67.25,71.66Z"/>
      <path class="st0" d="M853.77,795.1c-.87,3.97-10.94,4.07-11.61.2l-30.92-177.55c-3.29-18.91.03-37.61,14.24-50.6,9.01-8.24,21.19-12.59,33.21-10.31,29.14,5.52,39.27,37.48,32.76,67.05l-37.67,171.22Z"/>
      <path class="st0" d="M877.41,911.37c-16.47,20.1-44.31,20.11-60.86,1.19-17.61-20.13-18.21-50.6-2-72.05,15.52-20.55,45.54-21.53,62.16-1.99,17.66,20.77,18.54,51.08.7,72.86Z"/>
    </g>
  </g>
</svg>