<?xml version="1.0" encoding="UTF-8"?>
<svg id="Layer_1" xmlns="http://www.w3.org/2000/svg" version="1.1" viewBox="0 0 1200 1200">
  <!-- Generator: Adobe Illustrator 30.1.0, SVG Export Plug-In . SVG Version: 2.1.1 Build 136)  -->
  <defs>
    <style>
      .st0 {
        fill: #fff;
      }
    </style>
  </defs>
  <g id="VHtRQS">
    <g>
      <path class="st0" d="M677.22,176.62c-5.32,6.13-7.52,12.6-14.39,14.85-53.86,17.55-77.29,68.58-77.18,123.22.09,46.46-16.41,90.32-47.95,123.63-18.22,19.25-42.23,35.43-68.87,36.79-10.01.51-14.56-12.96-15.6-19.26-5.19-31.62,26.33-23.43,51.48-47.94,26.84-26.17,39.23-60.79,39.13-98.33-.14-53.28,19.64-102.82,59.55-137.62,14.47-12.61,31.94-22.89,50.36-24.78,4.77-.49,8.86-1.9,12.93-.74,4.06,1.15,5.28,6.47,9.39,10.55,4.54-9.66,11.07-16.3,21.75-16.31l236.05-.18c15.01,0,23.91,9.72,24.24,23.72.35,14.69-8.97,25-24.27,25.03l-78.12.12c-9.65.01-16.29,6.27-16.3,16.37l-.29,248.89c-.01,13.34-10.61,20.87-20.88,20.88-12.69.02-21.08-9.39-21.09-23.52l-.2-243.69c0-11.58-7.55-18.8-18.92-18.82l-78.09-.2c-9.49-.02-16.79-4.13-22.76-12.67h0Z"/>
      <path class="st0" d="M938.27,319.01c35.27-5.01,10.33,37.74,62,85.56,35.29,32.66,87.98,31.11,121.48-3.46,50.85-52.47,48.08-144.49-4.93-190.97-32.99-28.91-79.14-30.04-112.75-2.09-50.31,41.83-30.88,84.98-58.99,88.29-8.04.95-23.72-1.89-23.47-13.69,1.23-58.16,48.39-126.59,110.5-138.55,46.8-9.02,92.21,2.26,123.98,42.46,4.13-14.42-1.05-26.82,6.93-38.24,5.37-7.68,16.56-8.86,23.72-5.21,8.57,4.38,13.29,10.21,13.27,21.67l-.54,291.03c-.02,12.13-11.72,19.45-19.79,19.65-11.57.28-19.94-7.14-20.91-18.94l-2.14-25.84c-16.92,14.99-33.02,28.95-54.22,36.86-45.18,16.85-93.74,6.79-128.98-26.17-29.65-27.72-47.94-64.82-52.39-105.66-1.06-9.77,10.48-15.78,17.23-16.73h.01Z"/>
      <path class="st0" d="M287.31,882.59c47.78-30.84,29.2-66.25,58.41-67.55,8.13-.37,23.97,3.31,23.3,15.42-1.52,26.94-17.67,51.16-37.8,69.42-59.88,54.32-149.07,54.17-213.48,2.62l-.72,145.16c-.07,14.24-8.62,22.93-21.34,22.85-12.57-.08-21.45-8.52-21.44-23.01l.32-241.32c.09-64.68,52.45-116.18,110.63-127.93l13.77-2.78c80.2-16.2,169.24,46.51,170.26,111.72.14,9.37-13.27,11.97-19.04,12.25-32.26,1.55-13.36-27.89-52.19-59.84-41.38-34.05-102.56-36.17-144.79-3.13-22.7,17.76-35.73,41.79-36.25,68.26-.54,27.7,11.38,51.81,33.71,70.65,38.05,32.11,94.6,34.36,136.67,7.2h-.02Z"/>
      <path class="st0" d="M744.01,831.21c15.13,42.95,57.65,66.94,101.43,67.37,36.45.35,69.36-14.45,90.75-43.94,30.91-42.61,16.56-100.35-27.98-127.56-27.38-16.74-58.32-20.43-89.87-14.25-35.48,6.95-66.12,36.21-77.01,72.51-2.48,8.25-12.9,10.32-19.34,10.43-6.49.1-19.85-1.23-20.53-11.28-1.26-18.73,8.99-38.07,20.05-53.17,18.74-25.61,44.94-43,74.7-52.6,68.29-21.99,143.44,1.96,181.87,61.84,30.31,47.24,22.18,117.6-24.84,155.37-9.19,7.38-15.61,15.79-26.98,21.85-47.61,25.35-105.37,27.32-153.76,2.57-36.06-18.43-62.25-49.06-71.36-87.97-1.34-5.71.81-10.7,3.76-14.71,2.61-3.55,8.34-4.29,12.98-4.91,14.91-2,21.4,4.97,26.15,18.45h-.02Z"/>
      <path class="st0" d="M529.65,898.53c42.33,1.04,80.08-18.51,99.54-54.78,13.64-25.41,12.65-59.01-2.23-83.43-24.15-39.64-69.19-55.77-114.17-48.69-37.84,5.95-70.37,30.05-82.18,66.5-3.93,12.15-10.85,18.74-24.97,17.83-8.39-.53-20.31-4.8-18.69-16.01,7.66-52.71,58.92-95.3,108.47-104.66,34.29-6.48,48.15-7.63,82.99,1.98,38.49,10.62,72.99,36.49,91.09,72.97,26.72,53.9,10.23,115.76-36.43,152.95-57.22,45.63-140.17,46.63-198.23,1.67-25.36-19.64-43.31-46.59-47.98-77.89-1.62-10.83,12.13-13.81,19.31-14.44,14.92-1.33,19.88,6.63,24.26,18.93,14.49,40.74,54.72,65.95,99.24,67.04h.01Z"/>
      <path class="st0" d="M324.54,154.25l-148.32,312.07c-2.39,5.03-6.99,8.38-10.49,8.61-4.34.28-9.6-3.72-12.29-9.16L2.97,160.6c-4.66-9.45-3.53-19.31,1.26-27.24,3.79-6.3,10.12-9.55,16.37-9.76,6.25-.21,14.46,2.77,18.24,10.43l125.36,254.11,122.83-257.16c7.76-8.22,17.44-9.39,25.63-4.75,9.19,5.22,12.23,13.96,11.87,28.01Z"/>
      <path class="st0" d="M1136.77,897.73c13.65,3.49,19.18,8.66,20,19.21.59,7.6-3.77,22.12-15.1,21.03-37.42-3.58-72.01-22.58-95.39-51.7-14.79-18.42-27.47-40.28-27.53-64.84l-.63-265.05,42.3.24,1.97,261.84c.3,39.54,38.54,70.14,74.4,79.28h-.02Z"/>
      <path class="st0" d="M400.62,353.33c-.96,4.39-12.1,4.5-12.84.22l-34.21-196.43c-3.64-20.92.03-41.61,15.75-55.98,9.97-9.12,23.44-13.93,36.74-11.41,32.24,6.11,43.45,41.47,36.24,74.18l-41.68,189.43h-.01Z"/>
      <path class="st0" d="M426.78,481.97c-18.22,22.24-49.02,22.25-67.33,1.32-19.48-22.27-20.15-55.98-2.21-79.71,17.17-22.74,50.38-23.82,68.77-2.2,19.54,22.98,20.51,56.51.77,80.61h0Z"/>
    </g>
  </g>
</svg>